<?xml version="1.0" encoding="utf-8"?>
<!-- Generator: Adobe Illustrator 26.0.1, SVG Export Plug-In . SVG Version: 6.00 Build 0)  -->
<svg version="1.1" id="Layer_1" xmlns="http://www.w3.org/2000/svg" xmlns:xlink="http://www.w3.org/1999/xlink" x="0px" y="0px"
	 viewBox="0 0 705.4 120.6" style="enable-background:new 0 0 705.4 120.6;" xml:space="preserve">
<style type="text/css">
	.st0{fill:#1B75BC;}
	.st1{fill:#1B75BC;stroke:#FFFFFF;stroke-width:2.317;stroke-miterlimit:10;}
	.st2{fill:#FFFFFF;}
</style>
<g>
	<path class="st0" d="M108.6,120.6H12c-6.6,0-12-5.4-12-12V12C0,5.4,5.4,0,12,0h96.6c6.6,0,12,5.4,12,12v96.6
		C120.6,115.2,115.2,120.6,108.6,120.6z"/>
	<path class="st1" d="M17.6,5.6h85.5c6.6,0,12,5.4,12,12v85.5c0,6.6-5.4,12-12,12H17.6c-6.6,0-12-5.4-12-12V17.6
		C5.6,11,11,5.6,17.6,5.6z"/>
	<g>
		<path class="st2" d="M62.4,73.1H50.7V94H35.4V24.3h28.5c16.7,0,26.7,9.9,26.7,24.1v0.2C90.6,64.7,78.1,73.1,62.4,73.1z M75.1,48.7
			c0-6.9-4.8-10.6-12.5-10.6H50.7v21.3h12.2C70.6,59.4,75.1,54.8,75.1,48.7L75.1,48.7z"/>
	</g>
</g>
<g>
	<path class="st2" d="M160.5,66.7h-13.6v18.8h-3.7V35.1h18.3c11.1,0,18.7,5.7,18.7,15.4v0.1C180.1,61.2,171,66.7,160.5,66.7z
		 M176.4,50.7c0-8-6.2-12.2-15.3-12.2h-14.3v24.7h13.8c9.4,0,15.7-4.9,15.7-12.4v-0.1H176.4z"/>
	<path class="st2" d="M222.6,85.5l-6.4-14.1h-29.7l-6.4,14.1h-3.9l23.5-50.8h3.6l23.5,50.8H222.6z M201.4,38.9L188,68h26.6
		L201.4,38.9z"/>
	<path class="st2" d="M268.2,85.5l-16.1-20.9h-16.5v20.9h-3.7V35.1h21.2c10.9,0,18,5.9,18,14.3v0.1c0,8.4-6.3,13.2-14.8,14.4
		L273,85.5H268.2z M267.4,49.6c0-6.8-5.3-11-14.5-11h-17.2v22.7h17c8.4,0,14.7-4.2,14.7-11.5V49.6z"/>
	<path class="st2" d="M316,85.5L295.2,60l-12.5,12.7v12.8H279V35.1h3.7v33.1l32.1-33.1h5.1l-22,22.2l23,28.2H316z"/>
	<path class="st2" d="M388.6,85.5V41.7l-19.9,29h-0.3l-19.9-29v43.8h-3.6V35.1h3.5l20.2,29.8l20.2-29.8h3.5v50.4H388.6z"/>
	<path class="st2" d="M422.5,65.5v20h-3.7V65.6l-21.6-30.5h4.7l18.9,27.1l18.9-27.1h4.5L422.5,65.5z"/>
	<path class="st2" d="M485.7,66.7h-13.6v18.8h-3.7V35.1h18.3c11.1,0,18.7,5.7,18.7,15.4v0.1C505.3,61.2,496.2,66.7,485.7,66.7z
		 M501.6,50.7c0-8-6.2-12.2-15.3-12.2H472v24.7h13.8c9.4,0,15.7-4.9,15.7-12.4L501.6,50.7L501.6,50.7z"/>
	<path class="st2" d="M546.7,85.5V61.9h-32.3v23.6h-3.7V35.1h3.7v23.3h32.3V35.1h3.7v50.4H546.7z"/>
	<path class="st2" d="M583.6,86.4c-15.3,0-25.3-12.2-25.3-25.9v-0.1c0-13.8,10.2-26.1,25.4-26.1S609,46.4,609,60.2
		c0.1,0.1,0.1,0.1,0,0.1C609,74.1,598.9,86.4,583.6,86.4z M605.1,60.3c0-12.5-9.1-22.7-21.5-22.7s-21.4,10.1-21.4,22.5v0.1
		c0,12.5,9.1,22.7,21.5,22.7S605.1,72.8,605.1,60.3L605.1,60.3z"/>
	<path class="st2" d="M655.9,85.5l-35.5-44.8v44.8h-3.6V35.1h3.5L655.1,79V35.1h3.6v50.4H655.9z"/>
	<path class="st2" d="M669.2,85.5V35.1H705v3.5h-32.1v19.8h28.9v3.5h-28.9v20.2h32.5v3.5L669.2,85.5L669.2,85.5z"/>
</g>
</svg>
