<svg id="Layer_1" data-name="Layer 1" xmlns="http://www.w3.org/2000/svg" viewBox="0 0 42 29.8"><defs><style>.cls-1{fill:#fefefe;}.cls-2,.cls-4{fill:none;stroke:#fefefe;stroke-miterlimit:10;}.cls-2{stroke-width:0.99px;}.cls-3,.cls-5{isolation:isolate;fill:#fff;font-family:Poppins-Bold, Poppins;font-weight:700;}.cls-3{font-size:10px;}.cls-4{stroke-width:0.76px;}.cls-5{font-size:8px;}</style></defs><path class="cls-1" d="M24.3,32.1v1.8H26V32.1Z" transform="translate(0 -4.1)"/><polygon class="cls-1" points="29.8 0 29.8 29.8 26.8 29.8 26.8 28 28.2 28 28.2 1.8 13.9 1.8 13.9 28 23.4 28 23.4 29.8 12.3 29.8 12.3 0 29.8 0"/><line class="cls-2" x1="13" y1="5.3" x2="29.1" y2="5.3"/><rect class="cls-1" x="15.3" y="2.9" width="0.9" height="0.9"/><rect class="cls-1" x="15.3" y="25.4" width="0.9" height="0.9"/><rect class="cls-1" x="17.7" y="25.4" width="0.9" height="0.9"/><rect class="cls-1" x="16.9" y="2.9" width="2" height="0.9"/><rect class="cls-1" x="15.3" y="18.1" width="11.3" height="0.9"/><rect class="cls-1" x="15.3" y="20.6" width="11.3" height="0.9"/><rect class="cls-1" x="15.3" y="23" width="11.3" height="0.9"/><text class="cls-3" transform="translate(17.77 15.34)">$</text><path class="cls-1" d="M36.9,29.1v1.4h3.2V29.1Z" transform="translate(0 -4.1)"/><polygon class="cls-1" points="42 3.5 42 26.3 39.7 26.3 39.7 25 40.8 25 40.8 4.8 29.7 4.8 29.7 25 37.1 25 37.1 26.3 28.5 26.3 28.5 3.5 42 3.5"/><line class="cls-4" x1="29.1" y1="7.5" x2="41.4" y2="7.5"/><rect class="cls-1" x="30.8" y="5.7" width="0.7" height="0.7"/><rect class="cls-1" x="30.8" y="22.9" width="0.7" height="0.7"/><rect class="cls-1" x="32.7" y="22.9" width="0.7" height="0.7"/><rect class="cls-1" x="32.1" y="5.7" width="1.6" height="0.7"/><rect class="cls-1" x="30.8" y="17.4" width="8.7" height="0.7"/><rect class="cls-1" x="30.8" y="19.2" width="8.7" height="0.7"/><rect class="cls-1" x="30.8" y="21.1" width="8.7" height="0.7"/><text class="cls-5" transform="translate(32.69 15.5)">$</text><path class="cls-1" d="M8.4,29.1v1.4h2.9V29.1Z" transform="translate(0 -4.1)"/><polygon class="cls-1" points="13.5 3.5 13.5 26.3 11.2 26.3 11.2 25 12.3 25 12.3 4.8 1.2 4.8 1.2 25 8.6 25 8.6 26.3 0 26.3 0 3.5 13.5 3.5"/><line class="cls-4" x1="0.6" y1="7.5" x2="12.9" y2="7.5"/><rect class="cls-1" x="2.3" y="5.7" width="0.7" height="0.7"/><rect class="cls-1" x="2.3" y="22.9" width="0.7" height="0.7"/><rect class="cls-1" x="4.2" y="22.9" width="0.7" height="0.7"/><rect class="cls-1" x="3.6" y="5.7" width="1.6" height="0.7"/><rect class="cls-1" x="2.3" y="17.4" width="8.7" height="0.7"/><rect class="cls-1" x="2.3" y="19.2" width="8.7" height="0.7"/><rect class="cls-1" x="2.3" y="21.1" width="8.7" height="0.7"/><text class="cls-5" transform="translate(4.12 15.5)">$</text></svg>