<?xml version="1.0" encoding="utf-8"?>
<!-- Generator: Adobe Illustrator 26.0.1, SVG Export Plug-In . SVG Version: 6.00 Build 0)  -->
<svg version="1.1" id="Layer_1" xmlns="http://www.w3.org/2000/svg" xmlns:xlink="http://www.w3.org/1999/xlink" x="0px" y="0px"
	 viewBox="0 0 37.7 36.2" style="enable-background:new 0 0 37.7 36.2;" xml:space="preserve">
<style type="text/css">
	.st0{fill:#FFFFFF;}
</style>
<g id="icon1">
	<path class="st0" d="M36,18.4c0,0.1-0.1,0.2-0.1,0.3c-0.3,0.6-0.8,0.9-1.5,0.8c-0.6-0.1-1.1-0.5-1.2-1.1c-0.1-0.5-0.1-1-0.1-1.6
		c-0.5-4.9-2.8-8.7-7-11.2c-4.7-2.8-9.6-3-14.4-0.4c-4.3,2.3-6.8,5.9-7.5,10.7c-0.7,4.5,0.5,8.6,3.7,12c3.3,3.6,7.4,5.1,12.2,4.7
		c2.8-0.2,5.6-1.4,7.6-3.1c-0.6-0.6-1.2-1.2-1.7-1.8c-1.4,0.7-2.8,0.3-4.2-0.3c-2-0.8-3.7-2-5.3-3.4c-1.8-1.7-3.6-3.4-5.2-5.3
		c-1.2-1.5-2.3-3.2-2.9-5.1C8.2,12.9,8,12.2,8,11.5c0-0.6,0.2-1.1,0.6-1.6c0.5-0.6,1-1.2,1.5-1.8c0.8-0.8,1.8-0.9,2.8-0.4
		c1.4,0.7,2.5,1.7,3.3,3.1c0.5,0.9,0.5,1.9,0,2.8c-0.1,0.2-0.3,0.5-0.4,0.7c-0.4,0.6-0.4,1.2,0,1.7c1.2,1.6,2.7,3.1,4.3,4.3
		c0.5,0.4,1.1,0.4,1.7,0c0.3-0.2,0.7-0.4,1-0.6c0.9-0.4,1.8-0.4,2.6,0.1c1.2,0.7,2.2,1.7,2.9,2.9c0.5,0.9,0.5,1.8,0,2.7
		c-0.1,0.2,0,0.3,0.1,0.4c0.8,0.8,1.6,1.6,2.5,2.4c0.3,0.3,0.5,0.6,0.5,1c0.1,0.5-0.1,0.9-0.4,1.2c-2.6,2.6-5.7,4.3-9.4,4.9
		c-5.2,0.9-9.9-0.4-14-3.7c-3.4-2.7-5.4-6.2-6.2-10.5C0.5,15.9,1.7,11.1,5.1,7c2.7-3.4,6.3-5.4,10.5-6.2c0.7-0.1,1.3-0.2,2-0.3
		c0.7,0,1.4,0,2.1,0c0.1,0,0.2,0.1,0.3,0.1c2.1,0.1,4.2,0.7,6.1,1.6c5.4,2.6,8.7,6.9,9.8,12.8c0.1,0.7,0.2,1.3,0.3,2
		C36,17.5,36,17.9,36,18.4z"/>
</g>
</svg>
