<?xml version="1.0" encoding="utf-8"?>
<!-- Generator: Adobe Illustrator 26.0.1, SVG Export Plug-In . SVG Version: 6.00 Build 0)  -->
<svg version="1.1" id="Layer_1" xmlns="http://www.w3.org/2000/svg" xmlns:xlink="http://www.w3.org/1999/xlink" x="0px" y="0px"
	 viewBox="0 0 37.7 36.2" style="enable-background:new 0 0 37.7 36.2;" xml:space="preserve">
<style type="text/css">
	.st0{fill:#FFFFFF;}
</style>
<g id="icon3">
	<path class="st0" d="M34.4,12.3c0,4.1,0,8.2,0,12.3c0,0.1-0.1,0.2-0.1,0.3c-0.5,2.1-2.4,3-4.5,2.7c0-1.9,0-3.7,0-5.6
		c0-2.6-2-4.7-4.7-4.7c-4.5,0-9,0-13.6,0c-2.6,0-4.6,2-4.6,4.6c0,1.7,0,3.5,0,5.2c0,0.1,0,0.3,0,0.4c-0.4,0-0.7,0-1,0
		c-2.1,0-3.6-1.5-3.6-3.6c0-3.7,0-7.5,0-11.2c0-0.3,0-0.6,0.1-1c0.4-1.6,1.7-2.6,3.5-2.6c8,0,16,0,24,0c0.4,0,0.7,0,1.1,0
		c1.1,0.1,2.1,0.5,2.7,1.5C34.1,11.2,34.2,11.7,34.4,12.3z M27.5,15c0.4,0,0.8,0,1.1,0c0.7,0,1.2-0.5,1.1-1.2c0-0.6-0.5-1.1-1.2-1.1
		c-0.8,0-1.5,0-2.3,0c-0.6,0-1.1,0.5-1.1,1.1s0.5,1.1,1.2,1.2C26.8,15,27.2,15,27.5,15z"/>
	<path class="st0" d="M11.2,34.4c-0.1,0-0.2-0.1-0.3-0.1c-1-0.3-1.7-1.1-1.7-2.1c0-3.5,0-6.9,0-10.4c0-1.2,1-2.2,2.2-2.2
		c4.6,0,9.2,0,13.8,0c1.2,0,2.2,1,2.2,2.2c0,3.5,0,6.9,0,10.4c0,1-0.7,1.9-1.7,2.1c-0.1,0-0.2,0.1-0.3,0.1
		C20.8,34.4,16,34.4,11.2,34.4z M18.4,26.4c1.1,0,2.2,0,3.3,0c0.7,0,1.2-0.5,1.3-1.1c0-0.7-0.5-1.2-1.3-1.2c-2.2,0-4.4,0-6.6,0
		c-0.7,0-1.2,0.5-1.3,1.1c0,0.7,0.5,1.2,1.3,1.2C16.2,26.4,17.3,26.4,18.4,26.4z M18.4,29.8c1.1,0,2.2,0,3.3,0
		c0.8,0,1.3-0.5,1.3-1.1c0-0.7-0.5-1.2-1.3-1.2c-2.2,0-4.4,0-6.6,0c-0.8,0-1.3,0.5-1.3,1.1c0,0.7,0.5,1.2,1.3,1.2
		C16.2,29.8,17.3,29.8,18.4,29.8z"/>
	<path class="st0" d="M25.6,2.4c0.3,0.1,0.5,0.2,0.8,0.3c0.7,0.4,1.1,1,1.1,1.8s0,1.6,0,2.4c-6.1,0-12.2,0-18.2,0
		c0-0.9-0.1-1.7,0-2.6c0.1-1,0.7-1.6,1.7-1.9c0.1,0,0.1,0,0.2-0.1C16,2.4,20.8,2.4,25.6,2.4z"/>
</g>
</svg>
