<?xml version="1.0" encoding="utf-8"?>
<!-- Generator: Adobe Illustrator 26.0.1, SVG Export Plug-In . SVG Version: 6.00 Build 0)  -->
<svg version="1.1" id="Layer_1" xmlns="http://www.w3.org/2000/svg" xmlns:xlink="http://www.w3.org/1999/xlink" x="0px" y="0px"
	 viewBox="0 0 37 37.2" style="enable-background:new 0 0 37 37.2;" xml:space="preserve">
<style type="text/css">
	.st0{fill:#FFFFFF;}
</style>
<path id="icon2" class="st0" d="M25,33.2c-0.7-0.1-1.4-0.3-2-0.4c-1.4-0.4-2.7-1-3.9-1.7c-3.5-2-6.5-4.7-9.2-7.7
	c-1.7-2-3.2-4.1-4.4-6.5c-0.7-1.5-1.3-3-1.5-4.6c-0.1-1-0.1-2,0.4-3C4.6,9,4.8,8.7,5,8.5C5.8,7.7,6.7,6.9,7.5,6c1.1-1.2,2.9-1,4,0
	c1.3,1.2,2.5,2.5,3.8,3.8c1.1,1.1,1.1,2.8,0,3.8c-0.2,0.2-0.5,0.4-0.8,0.5c-0.8,0.3-1.4,0.8-1.7,1.5c-0.2,0.5-0.3,1-0.1,1.6
	c0.4,1.5,1.3,2.8,2.3,3.9c1.1,1.2,2.3,2.2,3.8,2.9c0.6,0.3,1.3,0.6,2,0.5c1-0.1,1.8-0.6,2.2-1.6c0.2-0.6,0.5-1.1,1.1-1.5
	c1.1-0.7,2.4-0.5,3.3,0.4c1.3,1.3,2.6,2.6,3.9,3.9c1,1.1,1,2.8-0.1,3.9c-0.8,0.9-1.7,1.7-2.5,2.5c-0.6,0.6-1.3,0.9-2.2,1
	c-0.1,0-0.1,0-0.2,0.1C25.8,33.2,25.4,33.2,25,33.2z"/>
</svg>
