<?xml version="1.0" encoding="utf-8"?>
<!-- Generator: Adobe Illustrator 26.0.1, SVG Export Plug-In . SVG Version: 6.00 Build 0)  -->
<svg version="1.1" id="Layer_1" xmlns="http://www.w3.org/2000/svg" xmlns:xlink="http://www.w3.org/1999/xlink" x="0px" y="0px"
	 viewBox="0 0 103 102" style="enable-background:new 0 0 103 102;" xml:space="preserve">
<path d="M84.3,90c-22.4,0-44.7,0-67.1,0c-0.2-0.1-0.4-0.2-0.6-0.2c-3.3-0.8-5.5-2.8-6.6-6c-0.2-0.5-0.3-1-0.5-1.5
	c0-20.9,0-41.7,0-62.6c0,0,0.1-0.1,0.1-0.1c1.3-5.1,4.4-7.5,9.8-7.5c9.5,0,19,0,28.6,0c7.1,0,14.3,0,21.4,0c4.5,0,8.2,3.1,8.9,7.5
	c0.2,1,0.1,2.1,0.2,3.2c0,2.4,0,4.8,0,7.3c2.1,0,4.1,0,6.1,0c4.8,0.1,8.8,3.9,8.8,8.8c0,13.6,0.1,27.3,0,40.9c0,4.2-2.2,7.3-6,9.2
	C86.5,89.4,85.3,89.6,84.3,90z M78.5,36c0,0.4,0,0.7,0,1c0,14,0,28,0,42c0,0.2,0,0.5,0,0.7c0.1,2.3,2.1,4.2,4.4,4.2
	c2.6,0,4.5-2,4.5-4.8c0-13.3,0-26.5,0-39.8c0-0.2,0-0.4,0-0.7c-0.1-1.5-1.3-2.7-2.8-2.7C82.7,36,80.6,36,78.5,36z M44,54
	c0.6,0,1.2,0,1.8,0c5.8,0,11.6,0,17.4,0c1.5,0,2.6-0.7,3-1.9c0.8-2.1-0.7-4.1-3.1-4.1c-10.6,0-21.1,0-31.7,0c-2.3,0-4.6,0-6.9,0
	c-1.4,0-2.5,0.7-2.9,2c-0.8,2,0.7,4,3,4C31.2,54,37.6,54,44,54z M44,69c6.4,0,12.9,0,19.3,0c1.8,0,3.2-1.3,3.2-3c0-1.7-1.3-3-3.2-3
	c-12.8,0-25.7,0-38.5,0c-0.2,0-0.4,0-0.6,0c-1.2,0.2-2,0.8-2.5,1.9c-0.8,2,0.7,4.1,3,4.1C31.1,69,37.5,69,44,69z M48.6,33
	c-4.9,0-9.8,0-14.7,0c-2,0-3.4,1.2-3.4,3c0,1.8,1.3,3,3.3,3c9.8,0,19.5,0,29.3,0c2,0,3.3-1.2,3.3-3c0-1.8-1.4-3-3.4-3
	C58.3,33,53.4,33,48.6,33z"/>
</svg>
