<?xml version="1.0" encoding="utf-8"?>
<!-- Generator: Adobe Illustrator 26.0.1, SVG Export Plug-In . SVG Version: 6.00 Build 0)  -->
<svg version="1.1" id="Layer_1" xmlns="http://www.w3.org/2000/svg" xmlns:xlink="http://www.w3.org/1999/xlink" x="0px" y="0px"
	 viewBox="0 0 103 102" style="enable-background:new 0 0 103 102;" xml:space="preserve">
<path d="M94.4,28.5c0,11.9,0,23.8,0,35.7c-0.7,2.1-2.3,2.9-4.5,2.8c-2.8-0.1-5.7,0-8.6,0c-0.3,0-0.6,0-1,0c0,0.4,0,0.8,0,1.1
	c0,5.7,0,11.4,0,17.1c0,2.6-1.3,4-3.7,4c-16.8,0-33.5,0-50.3,0c-0.5,0-1-0.1-1.4-0.2c-1.6-0.6-2.4-1.7-2.4-3.9c0-5.7,0-11.3,0-17
	c0-0.3,0-0.7,0-1.1c-0.4,0-0.7,0-1,0c-3,0-6.1,0-9.1,0c-2.5,0-3.9-1.4-3.9-3.9c0-11.2,0-22.4,0-33.5c0-2.5,1.4-3.9,3.9-3.9
	c3,0,6,0,9.1,0c0.3,0,0.7,0,1.1,0c0-0.4,0-0.7,0-1c0-2.7,0-5.4,0-8c0-2.6,1.4-3.9,3.9-3.9c16.6,0,33.3,0,49.9,0c2.6,0,4,1.3,4,4
	c0,2.7,0,5.4,0,8c0,0.3,0,0.6,0,0.9c3.3,0,6.4,0.1,9.6,0C92.2,25.6,93.7,26.4,94.4,28.5z M76.9,58.1c-16.9,0-33.8,0-50.7,0
	c0,9.2,0,18.4,0,27.6c16.9,0,33.8,0,50.7,0C76.9,76.5,76.9,67.3,76.9,58.1z M76.9,25.6c0-1.9,0-3.8,0-5.7c0-2.3-1.4-3.7-3.8-3.7
	c-14.4,0-28.8,0-43.3,0c-2.4,0-3.7,1.4-3.8,3.7c0,1.7,0,3.4,0,5.1c0,0.2,0.1,0.4,0.1,0.5C43.1,25.6,60,25.6,76.9,25.6z M20.4,34.9
	c0-1.7-1.4-3-3-3c-1.7,0-3.1,1.4-3.1,3.1c0,1.7,1.4,3,3,3C19,38,20.4,36.6,20.4,34.9z"/>
</svg>
