<svg xmlns="http://www.w3.org/2000/svg" version="1.1" xmlns:xlink="http://www.w3.org/1999/xlink" width="512" height="512" x="0" y="0" viewBox="0 0 32 32" style="enable-background:new 0 0 512 512" xml:space="preserve" class=""><g><path d="m26.29 14.88-1.68-1.68c-.44-.44-1.04-.65-1.66-.57s-1.15.42-1.47.96l-1.94 3.23c-.47.79-.35 1.79.3 2.44l.74.74-2.59 2.59-.74-.74c-.65-.65-1.65-.78-2.44-.3l-3.23 1.94c-.53.32-.88.85-.96 1.47s.13 1.22.57 1.66l1.68 1.68c1.08 1.08 2.59 1.71 4.12 1.71s3.04-.62 4.12-1.71l5.17-5.17c1.1-1.1 1.71-2.56 1.71-4.12s-.61-3.02-1.71-4.12zm-1.41 6.83-5.17 5.17C19 27.59 18.01 28 17 28s-1.99-.41-2.71-1.12l-1.68-1.68 3.23-1.94 1.45 1.45c.39.39 1.02.39 1.41 0l4-4c.19-.19.29-.44.29-.71s-.11-.52-.29-.71l-1.45-1.45 1.94-3.23 1.68 1.68c.72.72 1.12 1.68 1.12 2.71s-.4 1.98-1.12 2.71z" fill="#e72809" opacity="1" data-original="#000000" class=""></path><path d="M9 28H8c-1.1 0-2-.9-2-2V6c0-1.1.9-2 2-2v1c0 1.65 1.35 3 3 3h4c1.65 0 3-1.35 3-3V4c1.1 0 2 .9 2 2v4c0 .55.45 1 1 1s1-.45 1-1V6c0-2.21-1.79-4-4-4H8C5.79 2 4 3.79 4 6v20c0 2.21 1.79 4 4 4h1c.55 0 1-.45 1-1s-.45-1-1-1zm7-24v1c0 .55-.45 1-1 1h-4c-.55 0-1-.45-1-1V4z" fill="#e72809" opacity="1" data-original="#000000" class=""></path></g></svg>